<?xml version="1.0" encoding="UTF-8" standalone="no"?>
<!-- Created with Inkscape (http://www.inkscape.org/) -->

<svg
   version="1.1"
   id="svg1"
   width="1713.7358"
   height="287.84964"
   viewBox="0 0 1713.7359 287.84964"
   sodipodi:docname="big_title.png"
   inkscape:export-filename="big_title.png"
   inkscape:export-xdpi="96"
   inkscape:export-ydpi="96"
   xmlns:inkscape="http://www.inkscape.org/namespaces/inkscape"
   xmlns:sodipodi="http://sodipodi.sourceforge.net/DTD/sodipodi-0.dtd"
   xmlns="http://www.w3.org/2000/svg"
   xmlns:svg="http://www.w3.org/2000/svg">
  <defs
     id="defs1" />
  <sodipodi:namedview
     id="namedview1"
     pagecolor="#ffffff"
     bordercolor="#cccccc"
     borderopacity="1"
     inkscape:showpageshadow="0"
     inkscape:pageopacity="1"
     inkscape:pagecheckerboard="0"
     inkscape:deskcolor="#d1d1d1" />
  <g
     inkscape:groupmode="layer"
     inkscape:label="Image"
     id="g1"
     transform="translate(342.17817,-335.37933)">
    <path
       style="fill:#000000"
       d="m -225.08322,619.87428 c -130.23958,-27.48538 -160.18242,-193.5042 -47.27083,-262.09437 67.68926,-41.11905 160.41321,-21.21054 203.743332,43.74519 7.563408,11.33822 9.557936,9.40598 -22.208599,21.51506 l -25.974723,9.9013 -13.87686,-13.6841 -13.87685,-13.68409 -12.9637,-6.22431 c -7.13003,-3.42336 -17.96762,-7.02604 -24.08354,-8.00595 l -11.11985,-1.78164 -11.7686,1.66908 c -93.81781,13.30576 -105.38577,143.27841 -15.41183,173.16084 l 11.18756,3.71565 14.78716,0.0189 14.78717,0.0189 11.28182,-4.12669 c 15.25832,-5.58122 29.21654,-15.16504 41.13582,-28.24416 l 9.9217,-10.88716 26.840543,10.47427 c 14.762305,5.76085 27.112212,10.69336 27.44424,10.96113 1.525359,1.23016 -13.674492,21.43773 -23.89095,31.76203 -36.211793,36.59403 -88.559133,52.36816 -138.683013,41.79017 z m 564.57849,0.008 C 171.86978,584.4471 191.51607,346.18394 362.87253,336.37098 l 17.31648,-0.99165 16.11823,2.81677 c 40.04895,6.99882 78.02438,31.15107 99.57437,63.329 7.62682,11.38817 9.50292,9.56535 -22.18359,21.5536 l -25.97473,9.82726 -13.85318,-13.62878 -13.85319,-13.62877 -12.98736,-6.32364 c -7.2701,-3.53985 -17.88252,-7.08076 -24.10722,-8.04352 l -11.11985,-1.71988 -11.4308,1.62117 c -37.22796,5.27988 -65.9392,30.97844 -75.46675,67.548 l -2.93248,11.25571 0.86059,13.85319 c 2.05231,33.03643 20.49074,60.52723 50.60146,75.44433 l 13.85318,6.86299 12.12154,1.48085 c 29.86845,3.64894 56.90071,-7.58587 79.67496,-33.11351 l 8.6391,-9.68356 26.84055,10.50234 c 14.7623,5.77629 27.16502,10.77424 27.56161,11.10657 1.64825,1.38119 -13.71376,21.38866 -25.21173,32.83574 -35.86592,35.70718 -87.88324,51.07815 -137.41845,40.60676 z m 658.02635,0.11776 C 934.99031,606.28073 888.81557,556.72189 881.01972,494.95949 l -1.95004,-15.44917 1.95004,-15.44918 c 8.91708,-70.64532 66.83194,-123.51407 139.87918,-127.69151 l 17.3165,-0.9903 16.1182,2.81677 c 40.0456,6.99823 79.1583,31.99828 100.3623,64.14958 6.7899,10.29533 8.5813,8.63263 -22.201,20.60624 -29.7391,11.56784 -27.0895,11.35757 -34.0225,2.70002 -13.4987,-16.8563 -37.6726,-31.30036 -57.5237,-34.37069 l -11.1198,-1.71988 -11.7687,1.66908 c -87.47753,12.40656 -105.90494,128.83728 -26.59935,168.06412 l 13.85315,6.85219 12.1216,1.48085 c 29.8333,3.64464 56.7847,-7.53919 79.6767,-33.06279 l 8.6374,-9.63034 26.8405,10.45037 c 14.7623,5.74771 27.1651,10.72227 27.5616,11.0546 1.5582,1.30568 -13.443,21.10919 -24.1441,31.87337 -19.3143,19.42826 -40.9674,32.14264 -67.7891,39.80485 l -12.6867,3.62422 -21.6456,0.74354 -21.6457,0.74354 z M -227.26655,515.20546 c -39.13698,-10.83376 -30.12382,-66.66144 10.78892,-66.82678 l 9.41025,-0.038 7.58758,3.67308 7.58758,3.67308 4.6163,6.97572 4.61631,6.97571 0.0315,9.69807 0.0315,9.69807 -25.54181,0.47921 c -26.53325,0.4978 -28.58858,1.20196 -20.97916,7.18753 l 4.56264,3.58898 h 8.19119 8.19119 l 4.39575,-3.4577 4.39575,-3.4577 6.94222,3.94326 6.94222,3.94325 -1.64763,2.94416 c -5.16602,9.23117 -25.93875,14.92631 -40.12223,11.00009 z m 117.1216,9e-4 c -38.81253,-12.59381 -29.57345,-66.66201 11.419403,-66.82768 l 9.41026,-0.038 7.58757,3.67308 7.58758,3.67308 4.616307,6.97572 4.616308,6.97571 0.03146,9.69807 0.03146,9.69807 -25.541814,0.47921 c -26.533254,0.4978 -28.588574,1.20196 -20.979164,7.18753 l 4.56265,3.58898 h 8.191184 8.19119 l 4.39575,-3.4577 4.39575,-3.4577 6.942222,3.94326 6.942224,3.94325 -1.647632,2.94416 c -2.765756,4.94213 -15.742284,11.40632 -24.890384,12.39902 l -8.658244,0.93954 z m 76.876041,0.59841 c -3.586318,-0.8902 -9.645294,-3.21265 -13.46439,-5.16101 l -6.943812,-3.54247 4.578764,-6.00307 c 5.27013,-6.9095 5.123757,-6.87394 13.643849,-3.31402 3.539687,1.47897 9.673975,2.45303 13.63175,2.16456 l 7.195955,-0.52449 0.553349,-3.89621 c 0.304343,-2.14291 0.252648,-3.89621 -0.114878,-3.89621 -32.582662,0 -51.482065,-28.68171 -26.660686,-40.46023 l 5.96584,-2.83097 10.994012,0.038 10.994011,0.038 7.1458696,3.24495 c 9.461917,4.29668 9.818144,5.26972 4.372091,11.9425 l -4.637459,5.68205 -6.6409016,-2.77474 c -3.652497,-1.52611 -9.486439,-2.53747 -12.964317,-2.24746 l -6.323414,0.5273 v 3.46329 3.4633 l 6.926593,1.53032 c 17.4910806,3.86436 20.7724896,5.12258 25.38252858,9.73261 l 4.92131602,4.92132 v 6.27997 c 0,16.99393 -17.5507716,26.83659 -38.5560706,21.62265 z m 68.504599,-0.0752 c -3.052643,-0.90481 -6.754042,-3.36375 -8.225329,-5.46431 l -2.675069,-3.8192 v -21.2603 -21.2603 h -4.32912 -4.329121 v -7.79242 -7.79241 h 4.329121 4.32912 v -9.52407 -9.52407 h 8.567747 8.567746 l 0.523407,9.09116 0.523407,9.09115 6.493681,0.53745 6.493682,0.53744 v 7.68789 7.68788 h -6.926594 -6.926593 v 16.35247 16.35247 l 3.848599,2.69566 c 2.11673,1.48262 5.278502,2.69566 7.02616,2.69566 h 3.17756 l -0.532479,7.35951 -0.532478,7.3595 -6.926593,0.31698 c -3.809626,0.17434 -9.42421,-0.42332 -12.476854,-1.32814 z m 57.041852,0.26394 c -3.109041,-0.78266 -8.819717,-3.51878 -12.690391,-6.08028 l -7.037588,-4.65725 -3.289326,-7.24498 c -11.149745,-24.55811 5.533941,-49.67035 32.999223,-49.67035 20.49253,0 36.51095,16.62298 34.34328,35.63945 l -0.57614,5.05428 -25.54181,0.47921 c -26.533248,0.4978 -28.588571,1.20196 -20.979159,7.18753 l 4.562648,3.58898 h 8.191181 8.19119 l 4.42893,-3.4838 4.42892,-3.48379 6.19449,3.65484 c 7.44215,4.39097 7.51115,4.90006 1.43246,10.5696 -8.77443,8.18385 -22.45602,11.51822 -34.657908,8.44656 z m 323.920768,-0.30416 c -3.05265,-0.88268 -6.75405,-3.32351 -8.22533,-5.42407 l -2.67507,-3.8192 v -21.2603 -21.2603 h -4.32912 -4.32912 v -7.79242 -7.79241 h 4.32912 4.32912 v -9.52407 -9.52407 h 8.56775 8.56774 l 0.52341,9.09116 0.52341,9.09115 6.49368,0.53745 6.49368,0.53744 v 7.68789 7.68788 h -6.9266 -6.92659 v 15.19953 15.19954 l 2.69567,3.8486 c 1.53491,2.19139 4.51749,3.84859 6.92659,3.84859 h 4.23093 v 6.74133 6.74133 l -2.7391,1.05109 c -3.71212,1.42447 -10.82355,1.07311 -17.53017,-0.86614 z m 50.02634,0.13063 c -4.11036,-0.84424 -10.14452,-3.18584 -13.40926,-5.20356 l -5.93589,-3.66858 1.69139,-2.89596 c 0.93027,-1.59278 2.83702,-4.3588 4.23724,-6.14672 l 2.54585,-3.25077 7.0425,2.81786 c 11.08322,4.43462 24.2889,3.49204 24.2889,-1.73367 0,-2.96014 -4.46485,-4.83852 -18.081,-7.60674 l -10.28857,-2.09172 -4.86335,-4.86335 -4.86334,-4.86334 v -7.54032 c 0,-13.66799 8.90459,-20.43246 26.89682,-20.43246 h 9.69158 l 8.54635,3.67654 c 9.8715,4.2466 10.02831,4.6864 4.15834,11.66247 l -4.388,5.21484 -5.94627,-2.48451 c -6.23277,-2.60422 -14.26496,-3.21329 -18.90324,-1.43342 -4.84534,1.85933 -2.92571,5.68624 3.75458,7.485 3.57152,0.96169 10.96975,2.96151 16.4405,4.44405 l 9.94682,2.69554 2.84376,4.34013 c 1.56407,2.38708 2.84377,7.49317 2.84377,11.34688 v 7.00674 l -3.42226,4.62545 c -6.17319,8.34357 -20.148,11.91464 -34.82722,8.89962 z m 77.59391,0.16865 c -18.57568,-5.65047 -29.18198,-20.35672 -27.22207,-37.74497 l 0.8772,-7.78257 4.95271,-7.03107 c 2.72399,-3.86709 8.38705,-8.84419 12.58458,-11.06022 l 7.63186,-4.02915 h 9.57081 9.5708 l 7.46123,3.61192 c 7.84339,3.79692 15.90067,13.04282 13.32618,15.29208 -0.83141,0.72638 -3.93619,2.27463 -6.89952,3.44056 l -5.38786,2.11987 -6.54241,-4.4398 c -19.83636,-13.46132 -41.29044,12.25562 -23.03724,27.61468 l 5.12231,4.31014 h 6.66087 6.66087 l 5.19253,-4.36923 5.19253,-4.36923 7.06187,2.8256 c 8.473,3.39023 8.5709,4.07365 1.70395,11.89468 l -5.35793,6.10234 -8.80956,2.61616 c -9.54995,2.83603 -13.61522,3.0358 -20.31371,0.99821 z m 74.47209,-0.96307 C 580.22762,502.7721 589.9983,448.54155 630.29837,448.37868 l 9.41026,-0.038 7.58757,3.67308 7.58758,3.67308 4.5486,6.87341 4.54861,6.8734 0.74021,10.23329 0.74021,10.2333 h -26.18286 c -27.21916,0 -29.39574,0.68467 -21.6202,6.80091 l 4.56265,3.58898 h 8.19118 8.19119 l 4.50834,-3.54626 4.50834,-3.54626 6.83459,3.93349 6.83459,3.93349 -1.61719,3.02173 c -2.66432,4.97833 -15.68877,11.51555 -24.93074,12.5132 l -8.65824,0.93465 z m 162.30472,0.38032 c -29.49613,-9.61266 -33.28041,-51.2692 -5.79158,-63.75239 l 7.12762,-3.23678 10.02596,-0.038 10.02596,-0.038 6.75729,3.44731 c 3.71651,1.89602 8.91438,6.27539 11.55081,9.73194 l 4.79352,6.28463 0.70053,11.00166 0.70054,11.00167 -26.60643,0.47908 -26.60642,0.47909 4.68332,4.76203 4.68332,4.76204 8.30404,-0.006 8.30404,-0.006 5.41972,-3.30479 5.41971,-3.3048 5.836,3.51107 c 7.8589,4.7281 7.6834,4.35128 3.94943,8.48006 -8.35692,9.24051 -26.79322,13.81572 -39.27738,9.74719 z M 1049.9,514.35148 c -15.4786,-5.34726 -22.8305,-15.74933 -22.9023,-32.40424 l -0.038,-8.8188 4.023,-7.60754 4.0229,-7.60754 9.1622,-4.78635 9.1621,-4.78636 h 9.3953 9.3953 l 6.6398,3.38736 c 12.2764,6.26295 17.9359,15.70771 18.2044,30.37978 l 0.1267,6.92659 -26.2727,0.86583 -26.2728,0.86582 2.0297,2.74753 c 3.3294,4.50695 9.1265,6.77654 17.3088,6.77654 h 7.7145 l 4.0633,-3.29026 4.0633,-3.29027 6.5184,3.32546 c 18.4477,9.41131 -14.1996,24.96646 -36.3439,17.31645 z m 83.8088,1.24653 c -18.0971,-4.00095 -28.4436,-22.94881 -23.5867,-43.19473 l 2.1428,-8.93225 6.5167,-6.5167 6.5167,-6.5167 8.468,-1.81606 8.468,-1.81606 6.6454,1.49878 c 3.655,0.82433 7.4852,2.3386 8.5117,3.36504 2.6325,2.63257 4.6369,2.3165 4.6369,-0.73121 v -2.59747 h 8.5842 8.5843 l 0.5069,32.05537 c 0.6054,38.28747 1.3306,35.47891 -9.1615,35.47891 h -8.5139 v -2.59747 c 0,-3.20691 -0.8268,-3.23715 -5.6888,-0.20809 -5.2285,3.25734 -14.5989,4.30434 -22.6307,2.52864 z m 78.5824,-0.21275 c -3.3086,-1.15929 -6.9985,-4.05591 -8.1998,-6.43692 l -2.1842,-4.32912 -0.025,-20.34687 -0.025,-20.34687 h -3.4633 -3.4633 v -7.79242 -7.79241 h 3.3728 3.3728 l 0.5234,-9.09116 0.5234,-9.09115 h 8.6582 8.6583 l 0.5234,9.09115 0.5234,9.09116 h 5.9703 5.9702 v 7.79241 7.79242 h -6.1213 -6.1214 l 0.4935,17.7494 0.4935,17.74939 5.7088,1.67961 5.7088,1.67962 -0.5138,6.97863 -0.5139,6.97862 -6.9266,0.37616 c -3.8096,0.20688 -9.6336,-0.57236 -12.9422,-1.73165 z m 59.4512,0.56944 c -9.067,-2.16216 -17.7186,-8.61488 -22.508,-16.78738 l -4.5407,-7.74798 0.083,-9.2255 c 0.3291,-36.62019 51.1686,-47.40529 68.0736,-14.44113 9.4178,18.36434 -2.5625,42.65792 -23.6558,47.96927 -8.2922,2.08801 -9.5988,2.10544 -17.452,0.23272 z M -166.14602,469.98625 v -45.88868 h 8.65824 8.65824 v 45.88868 45.88868 h -8.65824 -8.65824 z m 498.50946,43.28586 c -2.4939,-1.35529 -5.80568,-5.14325 -7.35951,-8.4177 l -2.82514,-5.95354 v -25.28011 -25.28011 h 8.65824 8.65824 v 22.59014 22.59014 l 4.25041,4.2504 c 4.61874,4.61874 7.12725,5.10589 13.60667,2.64242 6.16195,-2.34277 8.11765,-10.15279 8.11765,-32.41755 v -19.65555 h 8.65824 8.65824 v 33.76714 33.76714 H 374.12824 365.47 v -2.59747 c 0,-3.2319 -1.63302,-3.21681 -5.95883,0.0551 l -3.36135,2.5424 -9.62601,-0.0693 c -5.2943,-0.0381 -11.66647,-1.1782 -14.16037,-2.53349 z m 347.30489,0.38004 c -0.46913,-1.22252 -0.63948,-16.22292 -0.37856,-33.33422 l 0.47439,-31.11146 9.09115,-0.52341 9.09116,-0.5234 v 2.73243 2.73244 l 5.10895,-2.64194 c 2.80992,-1.45307 9.32839,-2.64194 14.48548,-2.64194 h 9.37653 l 4.59725,3.61619 c 2.52848,1.98891 5.75054,5.84642 7.16012,8.57225 l 2.56287,4.95605 v 25.28539 25.28539 l -9.09115,-0.52341 -9.09115,-0.5234 -0.86583,-23.73058 -0.86582,-23.73057 -2.16456,-2.15757 c -1.19051,-1.18666 -4.99231,-2.15757 -8.44844,-2.15757 h -6.28387 l -3.24019,4.00147 -3.24019,4.00146 v 22.31959 22.31959 h -8.71259 -8.71259 z m 300.5368,-31.54436 v -33.76714 h 8.65825 8.65824 v 4.44703 4.44704 l 5.27608,-3.75687 c 2.9018,-2.06627 8.4036,-4.17636 12.2263,-4.68909 l 6.9503,-0.93223 -0.5377,8.40466 -0.5377,8.40465 -5.195,1.06077 c -14.3087,2.92173 -16.83652,7.38795 -17.84762,31.5331 l -0.77953,18.61522 h -8.43581 -8.43581 z m 350.56297,31.54436 c -0.4691,-1.22252 -0.6395,-16.22292 -0.3785,-33.33422 l 0.4744,-31.11146 9.0911,-0.52341 9.0912,-0.5234 v 4.72146 4.72147 l 4.1589,-3.90709 c 2.2901,-2.1515 7.3477,-4.33481 11.2557,-4.85898 l 7.0968,-0.95188 v 8.66493 8.66492 l -6.594,1.05443 c -3.844,0.61467 -8.3576,2.92963 -10.8228,5.55076 l -4.2288,4.49634 -0.5819,19.77945 -0.582,19.77946 h -8.5635 -8.5636 z"
       id="path1" />
  </g>
</svg>
