<?xml version="1.0" encoding="UTF-8" standalone="no"?>
<!-- Created with Inkscape (http://www.inkscape.org/) -->

<svg
   width="1920"
   height="1080"
   viewBox="0 0 1920 1080"
   version="1.1"
   id="svg1"
   xml:space="preserve"
   inkscape:export-filename="background.png"
   inkscape:export-xdpi="96"
   inkscape:export-ydpi="96"
   sodipodi:docname="background.svg"
   xmlns:inkscape="http://www.inkscape.org/namespaces/inkscape"
   xmlns:sodipodi="http://sodipodi.sourceforge.net/DTD/sodipodi-0.dtd"
   xmlns:xlink="http://www.w3.org/1999/xlink"
   xmlns="http://www.w3.org/2000/svg"
   xmlns:svg="http://www.w3.org/2000/svg"><sodipodi:namedview
     id="namedview1"
     pagecolor="#ffffff"
     bordercolor="#cccccc"
     borderopacity="1"
     inkscape:showpageshadow="0"
     inkscape:pageopacity="1"
     inkscape:pagecheckerboard="0"
     inkscape:deskcolor="#d1d1d1"
     inkscape:document-units="px" /><defs
     id="defs1"><linearGradient
       id="linearGradient76"
       inkscape:collect="always"><stop
         style="stop-color:#000000;stop-opacity:1"
         offset="0"
         id="stop76" /><stop
         style="stop-color:#000000;stop-opacity:0"
         offset="1"
         id="stop77" /></linearGradient><linearGradient
       id="linearGradient1"
       inkscape:collect="always"><stop
         style="stop-color:#5fbcd3;stop-opacity:1"
         offset="0"
         id="stop1" /><stop
         style="stop-color:#216778;stop-opacity:1"
         offset="1"
         id="stop2" /></linearGradient><linearGradient
       inkscape:collect="always"
       xlink:href="#linearGradient1"
       id="linearGradient2"
       x1="-3.1067967"
       y1="-3.1068084"
       x2="1921.5533"
       y2="1076.5049"
       gradientUnits="userSpaceOnUse" /><filter
       inkscape:label="Blur Double"
       inkscape:menu="Blurs"
       inkscape:menu-tooltip="Overlays two copies with different blur amounts and modifiable blend and composite"
       style="color-interpolation-filters:sRGB"
       id="filter3"
       x="-0.0062422983"
       y="-0.011057785"
       width="1.0124846"
       height="1.0221156"><feGaussianBlur
         stdDeviation="5"
         result="fbSourceGraphic"
         id="feGaussianBlur2" /><feGaussianBlur
         stdDeviation="0.01"
         in="SourceGraphic"
         result="result1"
         id="feGaussianBlur3" /><feComposite
         in2="result1"
         operator="arithmetic"
         in="fbSourceGraphic"
         k2="0.5"
         k3="0.5"
         result="result2"
         id="feComposite3"
         k1="0"
         k4="0" /><feBlend
         in2="fbSourceGraphic"
         mode="normal"
         result="result3"
         id="feBlend3" /></filter><filter
       style="color-interpolation-filters:sRGB"
       inkscape:label="Duochrome"
       id="filter76"
       x="0"
       y="0"
       width="1"
       height="1"><feComposite
         in2="SourceGraphic"
         operator="arithmetic"
         k1="10"
         k2="10"
         result="composite1"
         id="feComposite75"
         k3="0"
         k4="0" /><feColorMatrix
         in="composite1"
         values="1"
         type="saturate"
         result="colormatrix1"
         id="feColorMatrix75" /><feFlood
         flood-opacity="1"
         flood-color="rgb(43,54,116)"
         result="flood1"
         id="feFlood75" /><feBlend
         in="flood1"
         in2="colormatrix1"
         mode="screen"
         result="blend1"
         id="feBlend75" /><feBlend
         in2="blend1"
         mode="screen"
         result="blend2"
         id="feBlend76" /><feColorMatrix
         in="blend2"
         values="1"
         type="saturate"
         result="colormatrix2"
         id="feColorMatrix76" /><feComposite
         in="colormatrix2"
         in2="SourceGraphic"
         operator="in"
         result="fbSourceGraphic"
         id="feComposite76" /><feColorMatrix
         result="fbSourceGraphicAlpha"
         in="fbSourceGraphic"
         values="0 0 0 -1 0 0 0 0 -1 0 0 0 0 -1 0 0 0 0 1 0"
         id="feColorMatrix82" /><feColorMatrix
         id="feColorMatrix83"
         type="luminanceToAlpha"
         result="colormatrix1"
         in="fbSourceGraphic" /><feFlood
         id="feFlood83"
         flood-opacity="1"
         flood-color="rgb(0,0,0)"
         result="flood1" /><feComposite
         id="feComposite83"
         in2="colormatrix1"
         operator="out"
         result="composite1" /><feFlood
         id="feFlood84"
         flood-opacity="1"
         flood-color="rgb(0,0,0)"
         result="flood2" /><feComposite
         id="feComposite84"
         in2="colormatrix1"
         result="composite2"
         operator="in" /><feComposite
         id="feComposite85"
         in="composite2"
         in2="composite1"
         k2="1"
         k3="1"
         operator="arithmetic"
         result="composite3"
         k1="0"
         k4="0" /><feColorMatrix
         id="feColorMatrix85"
         in="composite3"
         type="matrix"
         values="2 -1 0 0 0 0 2 -1 0 0 -1 0 2 0 0 0 0 0 1 0 "
         result="colormatrix2" /><feComposite
         id="feComposite86"
         in="colormatrix2"
         in2="composite3"
         operator="arithmetic"
         k2="2"
         result="composite4"
         k1="0"
         k3="0"
         k4="0" /><feBlend
         id="feBlend86"
         in="composite4"
         in2="composite3"
         mode="normal"
         result="blend" /><feComposite
         id="feComposite87"
         in2="fbSourceGraphic"
         operator="in" /></filter><linearGradient
       inkscape:collect="always"
       xlink:href="#linearGradient76"
       id="linearGradient77"
       x1="692.07184"
       y1="1063.1155"
       x2="76.567726"
       y2="345.44559"
       gradientUnits="userSpaceOnUse" /><filter
       style="color-interpolation-filters:sRGB"
       inkscape:label="Blur"
       id="filter1"
       x="-0.036707305"
       y="-0.065187391"
       width="1.0734146"
       height="1.1228385"><feGaussianBlur
         stdDeviation="26.0391 26.3566"
         result="blur"
         id="feGaussianBlur1" /></filter></defs><g
     inkscape:label="Calque 1"
     inkscape:groupmode="layer"
     id="layer1"
     style="filter:url(#filter1)"><rect
       style="fill:url(#linearGradient2);stroke-width:40;stroke-linecap:round;stroke-linejoin:round;filter:url(#filter3)"
       id="rect1"
       width="1926.2136"
       height="1087.3787"
       x="-1.553398"
       y="-4.6601944"
       transform="matrix(1.0649556,0,0,1.0649556,-66.417041,-37.269007)" /><path
       style="fill:url(#linearGradient77);filter:url(#filter76)"
       d="m 426.68085,1112.235 c -22.23252,-8.7824 -63.36065,-26.6571 -91.39574,-39.7216 -28.0351,-13.0644 -73.09931,-35.2741 -100.14256,-49.3548 -27.04334,-14.0808 -68.69229,-39.82078 -92.55322,-57.20003 -23.86092,-17.37925 -58.033355,-45.68023 -75.938855,-62.89104 -17.9054,-17.21084 -42.54201,-44.13599 -54.74799,-59.83367 -12.20597956,-15.69769 -28.95989,-41.36894 -37.2309,-57.04723 -8.271,-15.67831 -19.70167,-45.91034 -25.40147,-67.18232 -5.76999,-21.53387 -10.46378,-50.8558 -10.59,-66.15534 -0.12469,-15.11347 1.59973,-36.23796 3.83205,-46.94333 2.23232,-10.70537 8.17114,-30.14118 13.19736,-43.19068 5.0262,-13.04951 16.74366,-33.21266 26.03874,-44.80702 9.2950904,-11.59435 25.3442804,-27.1719 35.66477,-34.61677 10.32059,-7.44488 31.22043,-19.03482 46.44415,-25.75544 19.58759,-8.6471 36.315025,-13.11528 57.219255,-15.28423 16.24689,-1.68574 40.89602,-1.96884 54.77591,-0.62914 13.87979,1.33973 43.01376,9.5306 64.74205,18.20198 21.72828,8.67136 45.41632,19.49624 52.64003,24.05528 13.13402,8.28916 13.13402,8.28916 35.10208,-31.37863 15.60205,-28.17252 28.72504,-45.40024 45.28467,-59.44915 12.82409,-10.87971 33.20079,-24.75861 45.28154,-30.84199 12.08065,-6.08333 39.41371,-14.7925 60.73997,-19.35364 28.51322,-6.09825 47.80095,-7.36664 72.88039,-4.79272 23.18049,2.37902 43.00629,8.11914 61.89254,17.91947 16.89691,8.76813 36.62964,24.06786 50.3493,39.03842 12.40918,13.54055 27.36933,34.12479 33.24478,45.74274 5.87531,11.618 13.67936,32.30824 17.34225,45.97833 3.66289,13.67009 7.45125,39.37005 8.41842,57.11105 0.96726,17.74098 0.65991,50.10578 -0.68305,71.9218 -1.34286,21.81599 -5.58047,57.75067 -9.41682,79.85481 -3.83635,22.10414 -13.0513,60.33253 -20.47767,84.95199 -10.82391,35.88299 -21.84223,58.16698 -55.54377,112.3346 -23.12288,37.16463 -51.55337,81.48347 -63.17913,98.48637 -11.62566,17.00293 -38.68011,52.86313 -60.12097,79.68933 -21.44098,26.8261 -40.8424,50.6503 -43.11439,52.9427 -2.2768,2.2972 -22.2733,-2.9988 -44.55372,-11.8001 z M 602.73371,523.9804 c 5.63346,-5.13404 11.59511,-16.71428 13.24829,-25.73394 1.65307,-9.01964 1.86866,-20.64266 0.479,-25.82893 -1.38966,-5.18626 -6.92818,-16.56219 -12.30788,-25.27982 -5.3796,-8.71766 -19.57148,-21.77428 -31.53758,-29.01471 -14.53182,-8.79287 -27.13536,-12.74808 -37.95417,-11.9107 -11.36234,0.87945 -20.21093,4.66753 -29.64152,12.68951 -8.46691,7.20232 -14.89117,18.22873 -17.35375,29.78554 -2.15048,10.09236 -2.11784,25.03843 0.0726,33.21346 2.19049,8.17502 9.15554,21.77653 15.47794,30.22555 8.76579,11.71435 17.41802,16.93078 36.43936,21.96945 13.71926,3.63417 31.21959,4.94518 38.88957,2.91338 7.66998,-2.03177 18.55461,-7.89476 24.18809,-13.02879 z"
       id="path61" /></g></svg>
