<?xml version="1.0" encoding="UTF-8" standalone="no"?>
<!-- Created with Inkscape (http://www.inkscape.org/) -->

<svg
   width="1920"
   height="1080"
   viewBox="0 0 1920 1080"
   version="1.1"
   id="svg1"
   xml:space="preserve"
   inkscape:export-filename="..\NCP\background.svg"
   inkscape:export-xdpi="96"
   inkscape:export-ydpi="96"
   sodipodi:docname="background.svg"
   xmlns:inkscape="http://www.inkscape.org/namespaces/inkscape"
   xmlns:sodipodi="http://sodipodi.sourceforge.net/DTD/sodipodi-0.dtd"
   xmlns:xlink="http://www.w3.org/1999/xlink"
   xmlns="http://www.w3.org/2000/svg"
   xmlns:svg="http://www.w3.org/2000/svg"><sodipodi:namedview
     id="namedview1"
     pagecolor="#ffffff"
     bordercolor="#cccccc"
     borderopacity="1"
     inkscape:showpageshadow="0"
     inkscape:pageopacity="1"
     inkscape:pagecheckerboard="0"
     inkscape:deskcolor="#d1d1d1"
     inkscape:document-units="px" /><defs
     id="defs1"><linearGradient
       id="linearGradient76"
       inkscape:collect="always"><stop
         style="stop-color:#000000;stop-opacity:1"
         offset="0"
         id="stop76" /><stop
         style="stop-color:#000000;stop-opacity:0"
         offset="1"
         id="stop77" /></linearGradient><linearGradient
       id="linearGradient1"
       inkscape:collect="always"><stop
         style="stop-color:#5fbcd3;stop-opacity:1"
         offset="0"
         id="stop1" /><stop
         style="stop-color:#216778;stop-opacity:1"
         offset="1"
         id="stop2" /></linearGradient><linearGradient
       inkscape:collect="always"
       xlink:href="#linearGradient1"
       id="linearGradient2"
       x1="-3.1067967"
       y1="-3.1068084"
       x2="1921.5533"
       y2="1076.5049"
       gradientUnits="userSpaceOnUse" /><filter
       inkscape:label="Blur Double"
       inkscape:menu="Blurs"
       inkscape:menu-tooltip="Overlays two copies with different blur amounts and modifiable blend and composite"
       style="color-interpolation-filters:sRGB"
       id="filter3"
       x="-0.0062422983"
       y="-0.011057785"
       width="1.0124846"
       height="1.0221156"><feGaussianBlur
         stdDeviation="5"
         result="fbSourceGraphic"
         id="feGaussianBlur2" /><feGaussianBlur
         stdDeviation="0.01"
         in="SourceGraphic"
         result="result1"
         id="feGaussianBlur3" /><feComposite
         in2="result1"
         operator="arithmetic"
         in="fbSourceGraphic"
         k2="0.5"
         k3="0.5"
         result="result2"
         id="feComposite3"
         k1="0"
         k4="0" /><feBlend
         in2="fbSourceGraphic"
         mode="normal"
         result="result3"
         id="feBlend3" /></filter><filter
       style="color-interpolation-filters:sRGB"
       inkscape:label="Duochrome"
       id="filter76"
       x="0"
       y="0"
       width="1"
       height="1"><feComposite
         in2="SourceGraphic"
         operator="arithmetic"
         k1="10"
         k2="10"
         result="composite1"
         id="feComposite75"
         k3="0"
         k4="0" /><feColorMatrix
         in="composite1"
         values="1"
         type="saturate"
         result="colormatrix1"
         id="feColorMatrix75" /><feFlood
         flood-opacity="1"
         flood-color="rgb(43,54,116)"
         result="flood1"
         id="feFlood75" /><feBlend
         in="flood1"
         in2="colormatrix1"
         mode="screen"
         result="blend1"
         id="feBlend75" /><feBlend
         in2="blend1"
         mode="screen"
         result="blend2"
         id="feBlend76" /><feColorMatrix
         in="blend2"
         values="1"
         type="saturate"
         result="colormatrix2"
         id="feColorMatrix76" /><feComposite
         in="colormatrix2"
         in2="SourceGraphic"
         operator="in"
         result="fbSourceGraphic"
         id="feComposite76" /><feColorMatrix
         result="fbSourceGraphicAlpha"
         in="fbSourceGraphic"
         values="0 0 0 -1 0 0 0 0 -1 0 0 0 0 -1 0 0 0 0 1 0"
         id="feColorMatrix82" /><feColorMatrix
         id="feColorMatrix83"
         type="luminanceToAlpha"
         result="colormatrix1"
         in="fbSourceGraphic" /><feFlood
         id="feFlood83"
         flood-opacity="1"
         flood-color="rgb(0,0,0)"
         result="flood1" /><feComposite
         id="feComposite83"
         in2="colormatrix1"
         operator="out"
         result="composite1" /><feFlood
         id="feFlood84"
         flood-opacity="1"
         flood-color="rgb(0,0,0)"
         result="flood2" /><feComposite
         id="feComposite84"
         in2="colormatrix1"
         result="composite2"
         operator="in" /><feComposite
         id="feComposite85"
         in="composite2"
         in2="composite1"
         k2="1"
         k3="1"
         operator="arithmetic"
         result="composite3"
         k1="0"
         k4="0" /><feColorMatrix
         id="feColorMatrix85"
         in="composite3"
         type="matrix"
         values="2 -1 0 0 0 0 2 -1 0 0 -1 0 2 0 0 0 0 0 1 0 "
         result="colormatrix2" /><feComposite
         id="feComposite86"
         in="colormatrix2"
         in2="composite3"
         operator="arithmetic"
         k2="2"
         result="composite4"
         k1="0"
         k3="0"
         k4="0" /><feBlend
         id="feBlend86"
         in="composite4"
         in2="composite3"
         mode="normal"
         result="blend" /><feComposite
         id="feComposite87"
         in2="fbSourceGraphic"
         operator="in" /></filter><linearGradient
       inkscape:collect="always"
       xlink:href="#linearGradient76"
       id="linearGradient77"
       x1="692.07184"
       y1="1063.1155"
       x2="76.567726"
       y2="345.44559"
       gradientUnits="userSpaceOnUse" /><filter
       style="color-interpolation-filters:sRGB"
       inkscape:label="Blur"
       id="filter1"
       x="-0.036120831"
       y="-0.065187391"
       width="1.0660991"
       height="1.1228385"><feGaussianBlur
         stdDeviation="26.0391 26.3566"
         result="blur"
         id="feGaussianBlur1" /></filter><filter
       inkscape:label="Opacity"
       style="color-interpolation-filters:sRGB"
       id="filter14"
       x="0"
       y="0"
       width="1"
       height="1"><feColorMatrix
         values="1 0 0 0 0 0 1 0 0 0 0 0 1 0 0 0 0 0 5 -1 "
         result="colormatrix"
         id="feColorMatrix14" /><feComposite
         in2="colormatrix"
         operator="arithmetic"
         k2="0.771341"
         result="composite"
         id="feComposite14"
         k1="0"
         k3="0"
         k4="0" /></filter></defs><g
     inkscape:label="Calque 1"
     inkscape:groupmode="layer"
     id="layer1"
     style="filter:url(#filter1)"><rect
       style="fill:url(#linearGradient2);stroke-width:40;stroke-linecap:round;stroke-linejoin:round;filter:url(#filter3)"
       id="rect1"
       width="1926.2136"
       height="1087.3787"
       x="-1.553398"
       y="-4.6601944"
       transform="matrix(1.0649556,0,0,1.0649556,-66.417041,-37.269007)" /><g
       id="g14"
       transform="matrix(3.2592385,0,0,3.2592385,-184.12048,4157.5101)"
       style="filter:url(#filter14)"><path
         id="path6"
         style="fill:#000000"
         d="m 448.91236,-1285.7765 -7.9336,3.4649 -7.93555,3.4629 -19.04687,51.3007 -19.04492,51.3008 -5.22071,22.9141 -5.2207,22.9141 6.85156,7.6074 6.85352,7.6093 56.91016,19.2891 56.91015,19.2871 48.24219,12.9121 48.24219,12.9121 9.96289,-0.027 9.96484,-0.029 14.47461,-38.5976 14.47461,-38.5977 7.41211,-31.8242 7.41211,-31.8242 1.3457,-9.4492 1.34766,-9.4473 -76.52539,-28.6875 -76.52539,-28.6855 -36.47461,-8.9024 z m 17.06445,28.0938 88.26953,28.2539 88.26953,28.2558 2.15039,7.6915 2.15039,7.6933 -9.17773,30.7109 c 3.78841,4.1122 2.04547,9.1749 -2.99805,10.0352 l -6.57812,22.0137 -7.02344,11.0937 -7.02539,11.0938 -52.95899,-18.0293 -52.95703,-18.0313 -41.8457,-12.4336 -41.8457,-12.4355 -2.10352,-6.9277 -2.10547,-6.9278 13.91016,-39.8301 13.91015,-39.832 8.97852,-1.1973 z m -27.36524,40.6621 -0.60937,1.623 1.89258,0.711 c -0.158,-0.2807 -0.30717,-0.5659 -0.47461,-0.8418 -0.30737,-0.5066 -0.56951,-1.0024 -0.8086,-1.4922 z m 75.32422,19.3555 c 0.19192,0.1472 0.39159,0.2875 0.57813,0.4394 0.0811,-0.047 0.16621,-0.087 0.24805,-0.1328 z m 2.90235,1.5527 c -0.39256,0.2219 -0.56972,0.3341 -0.67774,0.4414 0.11744,0.1293 0.24812,0.2453 0.36328,0.377 0.10817,-0.2727 0.22497,-0.5444 0.31446,-0.8184 z m -37.2793,10.9844 c -0.11192,0.047 -0.22431,0.067 -0.33594,0.1 -0.0199,0.529 -0.009,1.0438 -0.0469,1.5722 0.18023,-0.097 0.36291,-0.1895 0.54297,-0.2871 0.11025,-0.3793 0.25779,-0.6893 0.38867,-1.0293 -0.18158,-0.1204 -0.36745,-0.2347 -0.54883,-0.3554 z m -25.01172,10.5332 0.12305,0.2754 c 0.0896,-0.076 0.16829,-0.1659 0.26367,-0.2344 -0.13084,-0.018 -0.2537,-0.016 -0.38672,-0.041 z m 63.41406,0.7793 c 0.0121,0.5451 0.0426,1.0604 0.0937,1.541 0.32025,-0.3959 0.66795,-0.7752 1.01563,-1.1543 -0.11728,-0.076 -0.23238,-0.1547 -0.34961,-0.2305 -0.25413,-0.049 -0.51072,-0.09 -0.75977,-0.1562 z m 88.18555,18.0215 c 0.01,0.011 0.0175,0.024 0.0273,0.035 0.42648,0.1921 0.85493,0.3798 1.28125,0.5722 -0.43606,-0.2027 -0.87242,-0.4048 -1.30859,-0.6074 z m -142.86719,15.7773 5.21485,0.2207 5.21679,0.2227 49.92383,14.3222 49.92383,14.3242 8.50977,18.4004 8.50781,18.4004 -11.52344,-4.4629 -11.52344,-4.4629 -4.81054,-7.6289 -4.81055,-7.6289 -40.45117,-13.2304 -40.45117,-13.2305 -9.2168,4.9922 -9.2168,4.9941 -8.20508,-3.0781 -8.20312,-3.0762 10.55664,-9.539 z" /><path
         style="fill:#000000"
         d="m 392.10779,-1122.0935 -6.78221,-7.5406 4.4996,-18.8022 4.4996,-18.8023 19.69514,-55.4743 19.69513,-55.4742 7.88277,-3.3257 7.88277,-3.3256 36.79592,8.8448 36.79592,8.8447 76.0714,28.5289 76.0714,28.5288 -0.54085,7.5387 -0.54085,7.5386 -10.23605,40.3983 -10.23604,40.3982 -13.47804,32.2778 -13.47804,32.2777 -12.71421,-1.485 -12.7142,-1.485 -44.23354,-11.8051 -44.23353,-11.8051 -56.95994,-19.1554 -56.95993,-19.1554 z m 181.52197,42.9187 37.87072,11.0778 15.96692,-42.6727 15.96692,-42.6728 5.20734,-23.4834 5.20735,-23.4834 -29.77286,-11.1793 -29.77286,-11.1793 -63.69588,-18.8877 -63.69589,-18.8878 -10.52421,0.019 -10.52422,0.019 -17.85704,54.0243 -17.85705,54.0242 -0.53565,9.5593 -0.53566,9.5592 63.34068,21.5428 63.34068,21.5427 z m -120.79687,-100.1842 -2.90856,-6.3992 4.02128,-10.7227 4.02129,-10.7226 9.90232,-1.3209 9.90233,-1.3208 7.63214,7.6463 7.63215,7.6462 -3.56341,9.5018 -3.56342,9.5017 -8.37995,3.8088 -8.37995,3.8089 -6.70383,-2.5142 -6.70383,-2.5141 z m 42.37095,9.8203 -0.0538,-7.0602 3.51716,-9.3784 3.51717,-9.3784 22.44491,7.9764 22.4449,7.9765 -8.53113,-6.7412 -8.53113,-6.7412 14.91729,5.1535 14.9173,5.1534 -3.85134,2.9794 -3.85134,2.9793 5.62582,2.1098 5.62582,2.1099 -1.22281,10.7859 -1.22282,10.7859 -7.06467,3.211 -7.06467,3.211 -25.78148,-9.0362 -25.78148,-9.0363 z m 75.5714,29.7664 -2.16653,-6.3422 1.35364,-6.1279 1.35365,-6.1279 2.2264,-4.539 2.22639,-4.539 9.0084,-1.2016 9.00839,-1.2016 8.53089,7.5142 8.53089,7.5141 -4.34817,11.5943 -4.34817,11.5943 -9.00716,1.2014 -9.00715,1.2014 -5.59746,-2.0992 -5.59747,-2.0992 z m -128.70366,-78.1274 3.85133,-2.9794 5.58849,2.0959 5.58849,2.0958 -1.45445,3.8783 -1.45444,3.8782 -7.98538,-2.9947 -7.98538,-2.9948 z m 174.03648,60.8447 1.45445,-3.8782 7.7565,2.9089 7.75649,2.9089 -1.45444,3.8782 -1.45445,3.8783 -7.7565,-2.9089 -7.7565,-2.9089 z"
         id="path5" /></g><path
       style="fill:url(#linearGradient77);filter:url(#filter76)"
       d="m 426.68085,1112.235 c -22.23252,-8.7824 -63.36065,-26.6571 -91.39574,-39.7216 -28.0351,-13.0644 -73.09931,-35.2741 -100.14256,-49.3548 -27.04334,-14.0808 -68.69229,-39.82078 -92.55322,-57.20003 -23.86092,-17.37925 -58.033355,-45.68023 -75.938855,-62.89104 -17.9054,-17.21084 -42.54201,-44.13599 -54.74799,-59.83367 -12.20597956,-15.69769 -28.95989,-41.36894 -37.2309,-57.04723 -8.271,-15.67831 -19.70167,-45.91034 -25.40147,-67.18232 -5.76999,-21.53387 -10.46378,-50.8558 -10.59,-66.15534 -0.12469,-15.11347 1.59973,-36.23796 3.83205,-46.94333 2.23232,-10.70537 8.17114,-30.14118 13.19736,-43.19068 5.0262,-13.04951 16.74366,-33.21266 26.03874,-44.80702 9.2950904,-11.59435 25.3442804,-27.1719 35.66477,-34.61677 10.32059,-7.44488 31.22043,-19.03482 46.44415,-25.75544 19.58759,-8.6471 36.315025,-13.11528 57.219255,-15.28423 16.24689,-1.68574 40.89602,-1.96884 54.77591,-0.62914 13.87979,1.33973 43.01376,9.5306 64.74205,18.20198 21.72828,8.67136 45.41632,19.49624 52.64003,24.05528 13.13402,8.28916 13.13402,8.28916 35.10208,-31.37863 15.60205,-28.17252 28.72504,-45.40024 45.28467,-59.44915 12.82409,-10.87971 33.20079,-24.75861 45.28154,-30.84199 12.08065,-6.08333 39.41371,-14.7925 60.73997,-19.35364 28.51322,-6.09825 47.80095,-7.36664 72.88039,-4.79272 23.18049,2.37902 43.00629,8.11914 61.89254,17.91947 16.89691,8.76813 36.62964,24.06786 50.3493,39.03842 12.40918,13.54055 27.36933,34.12479 33.24478,45.74274 5.87531,11.618 13.67936,32.30824 17.34225,45.97833 3.66289,13.67009 7.45125,39.37005 8.41842,57.11105 0.96726,17.74098 0.65991,50.10578 -0.68305,71.9218 -1.34286,21.81599 -5.58047,57.75067 -9.41682,79.85481 -3.83635,22.10414 -13.0513,60.33253 -20.47767,84.95199 -10.82391,35.88299 -21.84223,58.16698 -55.54377,112.3346 -23.12288,37.16463 -51.55337,81.48347 -63.17913,98.48637 -11.62566,17.00293 -38.68011,52.86313 -60.12097,79.68933 -21.44098,26.8261 -40.8424,50.6503 -43.11439,52.9427 -2.2768,2.2972 -22.2733,-2.9988 -44.55372,-11.8001 z M 602.73371,523.9804 c 5.63346,-5.13404 11.59511,-16.71428 13.24829,-25.73394 1.65307,-9.01964 1.86866,-20.64266 0.479,-25.82893 -1.38966,-5.18626 -6.92818,-16.56219 -12.30788,-25.27982 -5.3796,-8.71766 -19.57148,-21.77428 -31.53758,-29.01471 -14.53182,-8.79287 -27.13536,-12.74808 -37.95417,-11.9107 -11.36234,0.87945 -20.21093,4.66753 -29.64152,12.68951 -8.46691,7.20232 -14.89117,18.22873 -17.35375,29.78554 -2.15048,10.09236 -2.11784,25.03843 0.0726,33.21346 2.19049,8.17502 9.15554,21.77653 15.47794,30.22555 8.76579,11.71435 17.41802,16.93078 36.43936,21.96945 13.71926,3.63417 31.21959,4.94518 38.88957,2.91338 7.66998,-2.03177 18.55461,-7.89476 24.18809,-13.02879 z"
       id="path61" /></g></svg>
